<svg width="32" height="32" fill="none" xmlns="http://www.w3.org/2000/svg"><g clip-path="url(#prefix__clip0_131_612)"><path d="M24.5 0h-17A7.5 7.5 0 000 7.5v17A7.5 7.5 0 007.5 32h17a7.5 7.5 0 007.5-7.5v-17A7.5 7.5 0 0024.5 0z" fill="currentColor"/><path d="M22.863 10h.13c.159.013.318.09.417.216.147.18.186.422.199.65.034.694-.117 1.384-.315 2.047-.254.88-.612 1.724-.905 2.59-.052.151-.103.306-.142.461-.065.26-.056.53-.065.798-.008.25.009.5.056.745a.676.676 0 00.186.371.375.375 0 00.357.086c.168-.051.302-.18.422-.306.169-.185.328-.375.444-.595a2.72 2.72 0 00.306-.948c.065-.5.117-1.008.298-1.482.069-.181.155-.366.319-.478.22-.156.551-.091.72.116a.574.574 0 01.103.362 1.778 1.778 0 01-.1.496 4.956 4.956 0 00-.284 1.77c.005.139.017.285.09.41.061.104.165.185.285.185a.473.473 0 00.345-.18c.134-.151.241-.324.328-.505.172-.366.254-.767.327-1.163.06-.337.12-.673.215-1 .052-.168.117-.336.242-.466a.431.431 0 01.323-.125c.12.005.233.074.315.164.112.125.133.298.12.457-.12.952-.254 1.905-.362 2.857-.077.595-.146 1.19-.198 1.784-.004.065.073.104.116.06.31-.297.617-.607.85-.969.107-.164.185-.34.288-.504.043-.073.095-.147.177-.172a.38.38 0 01.392.043c.082.06.125.159.138.258v.116c-.026.199-.142.367-.228.54a3.862 3.862 0 01-.974 1.245c-.293.25-.638.44-1 .569-.022.008-.056.012-.06.043a3.053 3.053 0 01-.832 1.443 3.423 3.423 0 01-1.625.884 2.612 2.612 0 01-1.017.043 1.758 1.758 0 01-.927-.474 1.356 1.356 0 01-.4-.84 1.492 1.492 0 01.185-.837c.16-.288.4-.53.685-.698.272-.163.582-.241.888-.28a5.44 5.44 0 011.06-.008c.22.017.44.038.66.056.12.008.254.051.37-.009.082-.039.108-.138.12-.22.052-.388.13-.78.083-1.176-.009-.052-.022-.13-.087-.134-.077.035-.116.116-.16.185a.982.982 0 01-.671.513.698.698 0 01-.737-.349c-.065-.108-.095-.237-.19-.327-.065-.06-.16-.06-.237-.026-.138.06-.228.185-.34.28-.293.263-.664.461-1.065.483-.465.03-.944-.233-1.138-.664-.026-.06-.047-.147-.125-.155-.086-.013-.15.056-.198.116-.228.289-.444.6-.745.815a1.136 1.136 0 01-.668.228.735.735 0 01-.63-.366c-.056-.1-.077-.224-.168-.302-.069-.06-.176-.052-.25-.004-.112.064-.176.18-.267.271-.25.25-.612.375-.96.34a1.182 1.182 0 01-.962-.732c-.021-.056-.052-.12-.112-.138-.047-.017-.086.017-.116.048-.233.215-.466.435-.746.586-.284.15-.599.25-.922.241-.34.004-.681-.1-.957-.293a1.456 1.456 0 01-.526-.646c-.03-.07-.069-.147-.146-.164-.07-.018-.13.034-.168.086a1.59 1.59 0 01-.436.414c-.258.168-.56.284-.874.284a.944.944 0 01-.655-.258c-.186-.181-.285-.436-.324-.69-.047-.332.022-.668.117-.983.06-.206.137-.405.185-.616a.488.488 0 00-.013-.323c-.039-.078-.12-.125-.198-.16-.086-.034-.177.013-.237.07-.06.055-.09.129-.125.202a5.666 5.666 0 01-.845 1.413 6.208 6.208 0 01-1.168 1.087c-.491.349-1.056.603-1.655.685-.435.06-.888.026-1.31-.1a2.425 2.425 0 01-.711-.327 2.884 2.884 0 01-.88-1.013 4.577 4.577 0 01-.378-.97c-.125-.478-.168-.969-.19-1.46v-.336c.009-.362.043-.724.116-1.078.13-.642.362-1.258.677-1.832.25-.448.547-.87.922-1.22.41-.383.905-.68 1.453-.8.521-.117 1.081-.087 1.568.137.147.065.276.16.431.207a.36.36 0 00.323-.047c.138-.108.203-.28.32-.41a.592.592 0 01.59-.164.582.582 0 01.392.418c.03.13.013.263-.026.388-.06.177-.16.337-.254.496a6.678 6.678 0 00-.703 1.737c-.047.185-.086.379-.16.556a.936.936 0 01-.33.43.568.568 0 01-.47.087.526.526 0 01-.32-.302.863.863 0 01-.069-.478c.044-.384.255-.733.263-1.125.009-.22-.064-.448-.237-.59-.241-.207-.581-.263-.887-.22-.362.047-.703.22-.97.465-.289.267-.504.604-.677.953-.5 1-.72 2.146-.59 3.258.043.362.13.724.302 1.051.107.207.25.392.426.539.229.19.504.319.797.375a2.29 2.29 0 001.25-.125c.526-.203.983-.565 1.345-.991.194-.22.362-.461.526-.707.163-.228.336-.47.4-.75.044-.185.005-.375-.038-.556a.899.899 0 01.228-.69.762.762 0 01.384-.236.548.548 0 01.422.09.406.406 0 01.155.435c-.03.104-.065.212-.034.32.03.09.12.146.21.15.208.017.423-.021.621.047a.86.86 0 01.535 1.035c-.09.319-.203.633-.263.96a.762.762 0 00-.004.328c.017.078.086.147.168.151.142.013.271-.064.37-.16.203-.202.336-.46.431-.728.117-.323.177-.663.263-.995.09-.34.229-.672.444-.953a1.698 1.698 0 011.37-.68c.298.004.59.12.802.336.177.18.272.426.31.676.065.423-.013.867-.207 1.25-.267.526-.814.9-1.404.948-.087.009-.186.005-.25.07-.056.055-.052.141-.043.215.021.198.086.4.22.556.154.16.387.271.616.22.262-.057.487-.225.672-.406.177-.176.332-.375.474-.582.198-.284.319-.611.44-.93.116-.315.224-.634.418-.91a1.93 1.93 0 01.599-.582c.267-.168.586-.254.905-.236.099.004.21.008.293-.052.073-.056.099-.155.099-.246 0-.164.017-.323.03-.487.022-.254.043-.508.078-.758.073-.63.202-1.25.37-1.858.086-.306.198-.616.392-.875a.931.931 0 01.31-.297.542.542 0 01.419-.03c.172.052.284.215.353.37.125.306.09.647.065.97-.035.509-.155 1.008-.259 1.508-.09.44-.164.884-.245 1.323-.113.604-.22 1.211-.332 1.815-.095.495-.203 1-.143 1.508.018.134.035.28.125.384.065.073.173.09.259.06.116-.039.198-.142.258-.245.143-.242.268-.496.393-.75.18-.354.362-.72.422-1.117.095-.603.16-1.215.246-1.823.069-.452.146-.905.22-1.353.09-.564.193-1.125.353-1.672.078-.258.18-.513.362-.715.164-.164.358-.28.573-.302zm-8.326 5.008a.462.462 0 00-.211.164c-.125.159-.22.34-.285.534-.069.207-.133.422-.107.638.004.064.069.112.129.112.116.004.22-.06.31-.13.203-.142.332-.362.423-.586.056-.142.094-.297.081-.452-.008-.104-.06-.211-.15-.263a.226.226 0 00-.19-.017zm3.693.483a1.042 1.042 0 00-.612.374 1.72 1.72 0 00-.345.707c-.09.367-.099.754 0 1.12.03.113.082.225.169.307a.325.325 0 00.21.09c.203.03.393-.082.548-.198.194-.142.319-.353.397-.578.047-.137.017-.284.004-.426a6.437 6.437 0 01-.004-.866c.004-.1.034-.194.034-.294 0-.077-.03-.163-.103-.206-.09-.056-.199-.048-.298-.03zm5.762 5.154a1.857 1.857 0 00-.607.138.887.887 0 00-.483.452c-.06.13-.086.285-.022.414a.64.64 0 00.32.293c.185.082.391.095.585.073a2.405 2.405 0 001.582-.862c.078-.095.138-.202.203-.306.017-.034.043-.09.004-.12-.048-.035-.108-.022-.16-.022-.22-.013-.44-.034-.659-.043-.254-.013-.508-.034-.763-.017z" fill="#FFFCEC"/></g><defs><clipPath id="prefix__clip0_131_612"><path fill="#FFFCEC" d="M0 0h32v32H0z"/></clipPath></defs></svg>