<svg width="32" height="32" fill="none" xmlns="http://www.w3.org/2000/svg"><g clip-path="url(#prefix__clip0_125_1957)"><path d="M24.5 0h-17A7.5 7.5 0 000 7.5v17A7.5 7.5 0 007.5 32h17a7.5 7.5 0 007.5-7.5v-17A7.5 7.5 0 0024.5 0z" fill="#242938"/><path d="M16 3.75c-6.904 0-12.5 5.596-12.5 12.5 0 5.522 3.581 10.208 8.547 11.861.624.115.854-.271.854-.601 0-.299-.012-1.284-.017-2.328-3.478.755-4.213-1.475-4.213-1.475-.569-1.445-1.388-1.83-1.388-1.83-1.136-.776.084-.76.084-.76 1.256.088 1.916 1.288 1.916 1.288 1.113 1.91 2.923 1.357 3.637 1.039.111-.81.435-1.36.793-1.673-2.778-.316-5.697-1.389-5.697-6.179 0-1.365.488-2.48 1.288-3.356-.13-.315-.559-1.586.12-3.309 0 0 1.049-.336 3.437 1.282a11.963 11.963 0 013.129-.422c1.061.004 2.132.143 3.131.42 2.385-1.617 3.434-1.282 3.434-1.282.68 1.721.251 2.992.122 3.307.802.875 1.287 1.99 1.287 3.355 0 4.8-2.925 5.858-5.709 6.168.448.387.848 1.147.848 2.314 0 1.672-.016 3.018-.016 3.43 0 .332.226.72.858.598 4.964-1.655 8.54-6.338 8.54-11.86 0-6.905-5.598-12.5-12.5-12.5L16 3.75zM8.181 21.556c-.028.062-.126.08-.215.038-.091-.041-.142-.126-.112-.189.026-.065.123-.082.215-.04.09.04.142.126.11.188l.002.003zm.614.548c-.06.055-.176.029-.256-.059-.083-.087-.098-.204-.038-.26.062-.056.174-.03.257.058.08.087.097.203.035.258l.002.003zm.421.701c-.077.053-.202.003-.28-.109-.077-.11-.077-.245.002-.298.077-.054.2-.007.278.105.077.112.077.246-.002.3l.002.002zm.713.813c-.069.075-.215.055-.323-.05-.11-.1-.14-.243-.071-.32.069-.075.215-.054.324.048.107.1.141.244.067.32l.003.002zm.921.273c-.031.098-.171.143-.313.1-.142-.043-.235-.157-.206-.257.029-.099.17-.145.313-.101.14.042.233.156.204.255l.002.003zm1.049.117c.002.102-.118.187-.266.19-.15.002-.272-.082-.273-.183 0-.105.116-.189.266-.191.148-.004.27.079.27.181l.003.003zm1.03-.04c.017.1-.087.203-.234.23-.146.027-.28-.035-.299-.135-.019-.104.086-.208.231-.234.148-.026.28.034.3.136l.002.003z" fill="#FFFCEC"/></g></svg>