<svg width="32" height="32" viewBox="0 0 32 32" fill="none" xmlns="http://www.w3.org/2000/svg">
<g clip-path="url(#clip0_126_823)">
<path d="M24.5 0H7.5C3.35786 0 0 3.35786 0 7.5V24.5C0 28.6421 3.35786 32 7.5 32H24.5C28.6421 32 32 28.6421 32 24.5V7.5C32 3.35786 28.6421 0 24.5 0Z" fill="#242938"/>
<path d="M23.0888 27.2105H26.7475C27.0225 27.2105 27.2475 26.9868 27.2475 26.7105L27.2488 18.9793C27.2488 14.938 26.3775 11.833 21.6565 11.833C19.8615 11.7655 18.169 12.6905 17.2553 14.2355C17.2478 14.2468 17.234 14.2543 17.2203 14.2543C17.1978 14.2543 17.1803 14.2355 17.1803 14.2143V12.703C17.1803 12.4268 16.9565 12.203 16.6803 12.203H13.2078C12.9315 12.203 12.7078 12.4268 12.7078 12.7018V26.7043C12.7078 26.9805 12.9315 27.2043 13.2078 27.2043H16.8653C17.1403 27.2043 17.3653 26.9805 17.3653 26.7043V19.7818C17.3653 17.8243 17.7365 15.9293 20.1629 15.9293C22.5541 15.9293 22.5854 18.168 22.5854 19.908V26.703C22.5854 26.978 22.8091 27.203 23.0854 27.203L23.0888 27.2105Z" fill="#FFFCEC"/>
<path d="M4.75003 7.45234C4.75003 8.93484 5.97003 10.1548 7.45378 10.1548C8.93628 10.1536 10.1563 8.93359 10.1563 7.44984C10.155 5.96609 8.93503 4.74609 7.45253 4.74609C5.96878 4.74609 4.74878 5.96609 4.74878 7.44859L4.75003 7.45234Z" fill="#FFFCEC"/>
<path d="M5.6188 27.2103H9.2813C9.5563 27.2103 9.7813 26.9853 9.7813 26.7103V12.7065C9.7813 12.4303 9.5563 12.2065 9.2813 12.2065H5.61755C5.3413 12.2065 5.11755 12.4303 5.11755 12.7053V26.7078C5.11755 26.9828 5.3413 27.2078 5.61755 27.2078L5.6188 27.2103Z" fill="#FFFCEC"/>
</g>
<defs>
<clipPath id="clip0_126_823">
<rect width="32" height="32" fill="white"/>
</clipPath>
</defs>
</svg>
