<svg width="32" height="32" viewBox="0 0 32 32" fill="none" xmlns="http://www.w3.org/2000/svg">
    <g clip-path="url(#clip0_130_572)">
        <path
            d="M24.5 0H7.5C3.35786 0 0 3.35786 0 7.5V24.5C0 28.6421 3.35786 32 7.5 32H24.5C28.6421 32 32 28.6421 32 24.5V7.5C32 3.35786 28.6421 0 24.5 0Z"
            fill="#242938" />
        <path
            d="M10.7689 10.0009C14.5068 10.0009 17.5379 13.0525 17.5379 16.8164C17.5379 20.5796 14.5068 23.6312 10.7689 23.6312C7.03083 23.6312 4 20.5796 4 16.816C4 13.0516 7.03055 10 10.7689 10V10.0009ZM21.5786 10.4001C23.4471 10.4001 24.9632 13.2725 24.9632 16.8164C24.9632 20.3594 23.4472 23.2319 21.5787 23.2319C19.7093 23.2319 18.1942 20.3583 18.1942 16.8156C18.1942 13.2727 19.7093 10.3994 21.5778 10.3994L21.5786 10.4001ZM26.8103 11.0677C27.4675 11.0677 28 13.6402 28 16.8156C28 19.9891 27.4665 22.5636 26.8093 22.5636C26.1512 22.5636 25.6187 19.9891 25.6187 16.8156C25.6187 13.6412 26.1512 11.0677 26.8084 11.0677H26.8103Z"
            fill="#FFFCEC" />
    </g>
    <defs>
        <clipPath id="clip0_130_572">
            <rect width="32" height="32" fill="white" />
        </clipPath>
    </defs>
</svg>