<svg fill="none" xmlns="http://www.w3.org/2000/svg">
    <g clip-path="url(#prefix__clip0_291_2)">
        <path
            d="M82.1 34.6c5.1 0 9.18-9.1 9.18-13 0-3.5-2.04-5.25-5.78-4.9l-6.8 16.5c.678.703 2.04 1.4 3.4 1.4zm-3.74 9.81h-10.9l.339-1.05c2.72-.352 3.06-.352 3.74-1.75l9.87-23.5c-2.04 1.05-4.08 2.8-5.44 4.55l-.681-.7c1.02-1.05 3.06-3.5 6.8-5.26 1.7-1.05 3.74-1.4 5.44-1.4 4.76.35 7.14 3.15 7.14 7 0 8.05-7.82 13-11.9 13-1.36 0-3.74-.35-4.42-1.4-.34 1.4-3.4 7.7-3.4 8.4 0 1.05 2.38 1.05 3.74 1.05l-.328 1.06zM110 17.8c0-.703-.343-1.4-1.36-1.4-.685 0-1.7.698-2.38 1.4-2.04 1.75-4.42 5.95-5.44 8.4 3.06-1.05 9.18-5.26 9.18-8.4zm-1.36 11.6c-1.7 2.8-4.76 5.95-8.5 5.95-2.72 0-4.08-1.75-4.08-4.2 0-4.9 7.14-15.4 12.9-15.4 1.7 0 3.4.702 3.4 2.45 0 4.2-8.84 7.7-11.9 9.46-.337.699-1.02 3.5-1.02 4.2 0 1.05.34 2.1 1.7 2.1 2.72 0 5.44-3.16 6.8-4.91l.7.35zM111 34.9c1.02-2.45 7.48-15.1 7.48-16.5 0-.35 0-1.05-.339-1.05-1.02 0-3.4 3.85-5.1 5.25l-.683-.35c1.36-1.75 4.76-6.66 7.82-6.66 1.02 0 1.36 1.05 1.36 1.76 0 1.75-2.04 5.6-3.06 7.35h.342c1.7-2.8 6.8-9.11 10.5-9.11 1.36 0 2.38.353 2.38 1.76 0 2.8-6.8 14.4-6.8 15.4 0 0 0 .35.339.35 1.02 0 4.08-3.5 4.42-4.2l.679.699c-1.02 1.75-5.44 5.6-7.82 5.6-.682 0-1.36-.7-1.36-1.4 0-1.76 7.14-13.3 7.14-15.4 0-.35-.338-1.05-.681-1.05-4.42 0-11.9 13.3-13.3 17.5l-3.317.05z"
            fill="#0083A2" />
        <path
            d="M65.9 6.2c-3.4-1.4-6.46-.702-8.5 1.75 1.02-.7 3.06-2.8 6.8-1.4 3.74 1.4 4.42 5.95 4.08 8.4-.681 9.81-7.82 28.4-19 29.1-6.46.698-9.86-3.86-10.2-4.9h-.344c1.7 4.2 6.13 6.65 11.2 6.65 13.6.346 23.8-14.7 23.1-27.3-.341-7.36-4.08-10.9-7.14-12.3"
            fill="#009585" />
        <path
            d="M42.5 40.5c4.76 1.75 7.48-.354 8.16-1.05-5.1 2.45-9.86-.347-10.2-7.01-.34-9.1 8.5-30.5 19.7-30.5 4.08 0 6.8 1.4 9.18 3.85-1.02-2.1-4.76-5.25-10.2-5.25-13.3 0-23.5 13.3-23.1 27.3.342 7.7 3.4 11.2 6.46 12.6"
            fill="#009585" />
        <path
            d="M144 33c0 .607.194 1.01.391 1.22v.2c-.197 0-.391 0-.785.202-.981.201-1.96.405-2.94.405-1.77 0-3.53-.607-4.71-1.82-.98-1.01-1.38-2.22-1.38-3.64 0-1.21.395-2.63 1.38-3.64 1.18-1.21 2.75-2.02 4.91-2.02.786 0 1.57.203 2.16.403h.982c0 .608 0 1.42.194 2.63-.194.203-.392.203-.588 0-.196-1.62-1.38-2.22-2.94-2.22-2.75 0-3.93 2.02-3.93 4.65 0 1.22.196 2.63.981 3.64.788 1.01 2.16 1.42 2.95 1.42.787 0 1.38-.2 1.38-.404.194-.202.194-.404.194-1.01v-.607c0-1.21 0-1.21-.979-1.42h-.59c-.196-.202-.196-.402 0-.608.59.206 1.38.206 2.36.206.784 0 1.37 0 1.96-.206.197.206.197.406 0 .608h-.196c-.591 0-.785.203-.785 1.21L144 33zM149 29c0 .404 0 .404.786.404 1.57 0 2.16-.607 2.16-2.22 0-1.22-.785-2.23-1.96-2.23-.982 0-.982 0-.982.607L149 29zm-1.77-2.43c0-1.41 0-1.62-.783-1.62l-.394-.201v-.407c.984 0 2.36-.2 3.73-.2 1.18 0 2.16.2 2.95.607.785.404 1.37 1.21 1.37 2.43 0 1.41-1.18 2.02-1.96 2.42v.203c1.18 2.23 1.96 3.64 2.75 4.25.394.404.983.404.983.404.197 0 .197.203.197.403h-1.18c-1.37 0-2.16-.603-3.14-2.02-.393-.807-.785-1.62-1.18-2.22-.391-.407-.589-.61-.981-.61-.59 0-.59.203-.59.405v2.02c0 1.62.196 1.82.982 1.82h.395c0 .2 0 .403-.197.603-.59 0-1.38-.2-1.96-.2-.786 0-1.37.2-2.16.2 0-.2-.197-.403 0-.603h.394c.783 0 .783-.204.783-1.82l-.009-5.864zM158 29.2c0 2.22.982 5.26 3.54 5.26 1.77 0 3.14-1.42 3.14-4.65 0-2.42-.984-5.05-3.34-5.05-1.57 0-3.34 1.01-3.34 4.45m8.84.402c0 3.04-2.36 5.46-5.5 5.46-3.34 0-5.5-2.63-5.5-5.46 0-3.23 2.36-5.66 5.7-5.66 3.54 0 5.3 2.63 5.3 5.66zM169 26.5c0-1.62-.197-1.82-.787-1.82h-.392c0-.206 0-.408.195-.609.591.201 1.18.201 1.96.201.59 0 1.38 0 1.97-.2.196.2.196.402.196.608h-.396c-.784 0-.977.2-.977 1.82v3.64c0 2.22.782 4.05 2.94 4.05 1.96 0 2.75-1.62 2.75-4.05v-2.02c0-1.01 0-2.63-.196-3.03-.197-.202-.394-.402-.785-.402h-.394c-.197-.206 0-.408 0-.609.59.201 1.18.201 1.77.201.589 0 1.18 0 1.57-.2.196.2.196.402.196.608h-.396c-.39 0-.587.2-.783.402-.198.405-.198 1.82-.198 3.03v2.02c0 1.42-.195 2.63-.981 3.64-.785.807-1.96 1.21-2.95 1.21-1.57 0-2.55-.405-3.34-1.01-.589-.809-.979-1.82-.979-3.44L169 26.5zM181 26.5c0-1.42 0-1.62-.784-1.62l-.394-.2c-.196 0-.196-.206 0-.408.982 0 1.96-.2 3.34-.2 1.57 0 2.55.402 3.34.808.785.405 1.18 1.21 1.18 2.23 0 2.42-2.16 3.23-3.34 3.23h-.394c-.196-.202-.196-.403 0-.403 1.38-.406 1.77-1.42 1.77-2.63 0-1.42-.786-2.43-2.16-2.43-.784 0-.784 0-.784.607v6.87c0 1.62.197 1.82.784 1.82h.592c.196.2.196.402 0 .604-.786 0-1.57-.202-2.16-.202-.787 0-1.57.202-2.16.202v-.604h.196c.786 0 .982-.204.982-1.82L181 26.5zM4.48 17.2c0-.603 0-.603-.39-.603h-.978c-1.37 0-1.76.202-2.35 1.41 0 .202-.39 0-.39 0 .195-1.01.39-2.01.587-2.42 0-.203 0-.203.194-.203v.203c.197.402.393.402 1.37.402h6.26c.782 0 .98-.2 1.17-.402.197 0 .197-.203.197-.203.195 0 .195.203.195.203 0 .603-.195 2.01-.195 2.42 0 .202-.39.202-.39 0-.198-1.21-.588-1.41-2.15-1.41H6.63c-.392 0-.392 0-.392.603v6.85c0 1.61.197 1.81.98 1.81h.39c.195.2.195.402 0 .603-.783 0-1.56-.201-2.15-.201-.782 0-1.56.2-2.54.2v-.602h.783c.586 0 .782-.202.782-1.81L4.48 17.2zM15 21.3c-.782 0-.782.202-.782.603v2.22c0 1.61 0 1.81.782 1.81h.587c0 .201 0 .401-.197.603-.78 0-1.37-.202-2.15-.202-.585 0-1.37.202-1.96.202v-.603h.196c.781 0 .978-.202.978-1.81v-5.84c0-1.61-.197-1.81-.978-1.81h-.393c0-.203 0-.405.197-.606.587.201 1.37.201 1.96.201.783 0 1.37 0 1.96-.2.195.2.195.402 0 .605h-.195c-.782 0-.782.2-.782 1.81v2.01c0 .403 0 .403.782.403h3.52c.783 0 .978 0 .978-.403v-2.01c0-1.61-.195-1.81-.978-1.81h-.195c-.196-.203-.196-.405 0-.606.587.201 1.37.201 1.96.201.783 0 1.37 0 2.15-.2v.605h-.393c-.586 0-.781.2-.781 1.81v5.84c0 1.61.195 1.81.781 1.81h.393c.196.201 0 .401 0 .603-.784 0-1.37-.202-2.15-.202-.587 0-1.37.202-1.96.202-.196-.202-.196-.402 0-.603h.195c.783 0 .978-.202.978-1.81v-2.22c0-.4-.195-.603-.978-.603H15zM25.2 18.2c0-1.61-.195-1.81-.782-1.81h-.391c0-.202 0-.404.196-.604.587.2 1.17.2 1.96.2h2.93c.978 0 1.76 0 1.96-.2.196.402.196 1.61.39 2.21-.194.202-.39.202-.585.202-.196-1.01-.392-1.41-.978-1.41-.393-.202-.783-.202-1.17-.202h-.981c-.78 0-.78 0-.78.805v2.82c0 .403 0 .403.39.403h.783c1.37 0 1.56 0 1.76-.805v-.403c.195-.2.39-.2.586 0v3.22h-.586v-.604c-.197-.605-.393-.807-1.76-.807h-.782c-.391 0-.391.202-.391.603v1.82c0 .805 0 1.41.39 1.81.196.202.39.202 1.76.202 1.96 0 2.15-.402 2.74-1.61.198-.202.394 0 .588 0-.194.806-.587 2.01-.782 2.42-.586 0-1.96-.2-3.72-.2h-1.76c-.783 0-1.76.2-2.35.2-.197-.2-.197-.403 0-.603h.587c.587 0 .782-.202.782-1.81L25.2 18.2z"
            fill="#0083A2" />
    </g>
    <defs>
        <clipPath id="prefix__clip0_291_2">
            <path fill="#fff" d="M0 0h188v46H0z" />
        </clipPath>
    </defs>
</svg>